<svg width="105" height="106" viewBox="0 0 105 106" fill="none" xmlns="http://www.w3.org/2000/svg">
<g filter="url(#filter0_d_50_350)">
<path d="M4 0.687988H100.242V97.7439H4V0.687988Z" fill="#F7DF1E"/>
<path d="M29.3057 81.7947L36.6708 77.2998C38.0917 79.8404 39.3842 81.9899 42.4846 81.9899C45.4565 81.9899 47.3302 80.8176 47.3302 76.2575V45.2458H56.3745V76.3864C56.3745 85.8332 50.8835 90.1331 42.8723 90.1331C35.6372 90.1331 31.4374 86.3542 29.3055 81.794" fill="black"/>
<path d="M61.2867 80.8176L68.6509 76.5177C70.5895 79.7104 73.1091 82.0556 77.5665 82.0556C81.314 82.0556 83.7037 80.1661 83.7037 77.56C83.7037 74.4328 81.2489 73.3251 77.1141 71.5016L74.8537 70.5236C68.3283 67.7227 63.9997 64.2046 63.9997 56.7774C63.9997 49.9366 69.1679 44.7244 77.2437 44.7244C82.9935 44.7244 87.1281 46.7442 90.0995 52.0215L83.0576 56.5817C81.5071 53.7805 79.8279 52.6731 77.2438 52.6731C74.595 52.6731 72.9152 54.367 72.9152 56.5817C72.9152 59.3181 74.595 60.4259 78.4708 62.1199L80.7318 63.0971C88.4197 66.42 92.7483 69.8074 92.7483 77.4297C92.7483 85.6391 86.3526 90.134 77.7605 90.134C69.3621 90.134 63.9352 86.095 61.2869 80.8176" fill="black"/>
</g>
<defs>
<filter id="filter0_d_50_350" x="0" y="0.687988" width="104.242" height="105.056" filterUnits="userSpaceOnUse" color-interpolation-filters="sRGB">
<feFlood flood-opacity="0" result="BackgroundImageFix"/>
<feColorMatrix in="SourceAlpha" type="matrix" values="0 0 0 0 0 0 0 0 0 0 0 0 0 0 0 0 0 0 127 0" result="hardAlpha"/>
<feOffset dy="4"/>
<feGaussianBlur stdDeviation="2"/>
<feComposite in2="hardAlpha" operator="out"/>
<feColorMatrix type="matrix" values="0 0 0 0 0 0 0 0 0 0 0 0 0 0 0 0 0 0 0.25 0"/>
<feBlend mode="normal" in2="BackgroundImageFix" result="effect1_dropShadow_50_350"/>
<feBlend mode="normal" in="SourceGraphic" in2="effect1_dropShadow_50_350" result="shape"/>
</filter>
</defs>
</svg>
